<svg xmlns="http://www.w3.org/2000/svg"
     width="500"
     height="200"
     viewBox="0 0 1024 1024"
     preserveAspectRatio="xMidYMid slice">
  <!-- Main paths -->
  <path fill="#051C49" d="M394.875 330.438c2.528 3.048 2.561 4.94 2.46 8.82-.686 5.62-2.714 10.862-4.585 16.18A1789.728 1789.728 0 0 1 387 372l-1.313 3.751a4506.21 4506.21 0 0 1-6.221 17.635c-4.78 13.465-9.493 26.954-14.21 40.441l-6.197 17.72-.674 1.925c-3.743 10.7-7.498 21.397-11.26 32.09a16331.725 16331.725 0 0 0-15.84 45.278l-.893 2.565-1.765 5.064c-1.465 4.206-2.934 8.41-4.41 12.612-2.834 8.07-5.647 16.144-8.385 24.247l-.762 2.25c-1.518 4.48-1.518 4.48-3.026 8.964-6.777 20.19-6.777 20.19-11.044 24.458-6.282.642-9.964-.548-15.25-4-1.492-.925-2.985-1.846-4.48-2.766l-2.51-1.556c-4.78-2.906-9.655-5.648-14.522-8.407a3595.83 3595.83 0 0 1-9.054-5.158l-1.818-1.038c-8.007-4.578-15.968-9.233-23.929-13.891l-2.664-1.544a241.889 241.889 0 0 1-5.984-3.667l-3.226-2-2.934-1.863c-2.511-1.376-2.511-1.376-4.783-.54-2.074 1.607-3.422 3.19-4.948 5.325l-1.72 2.376-1.803 2.542a5150.8 5150.8 0 0 1-3.77 5.21l-1.861 2.581c-2.297 3.156-4.661 6.253-7.056 9.333a814.317 814.317 0 0 0-9.5 12.5l-2.235 2.954a125.237 125.237 0 0 0-3.344 4.656c-2.172 3.04-4.014 4.39-7.609 5.14-1.938.293-1.938.293-4-.187-3.264-2.636-4.817-4.259-5.833-8.375a125.793 125.793 0 0 1-.315-4.07l-.201-2.322c-.15-1.751-.29-3.503-.421-5.256a700.858 700.858 0 0 0-.844-9.816 3472.38 3472.38 0 0 1-1.673-19.08c-.285-3.333-.572-6.666-.86-9.998-.279-3.213-.554-6.425-.83-9.638l-.312-3.61-.284-3.342-.25-2.931c-.15-2.183-.177-4.374-.177-6.562l-2.547-.738c-3.86-1.41-7.211-3.322-10.703-5.45a3281.17 3281.17 0 0 0-4.543-2.714l-2.51-1.5c-5.058-2.997-10.162-5.917-15.26-8.848a5477.451 5477.451 0 0 1-34.472-20.015c-3.08-1.803-6.165-3.599-9.25-5.395a21041.5 21041.5 0 0 1-6.028-3.527l-2.823-1.64-2.602-1.528-2.283-1.333C55 478 53.482 476.857 52 475c-.61-5.495-.61-5.495 0-8 2.693-3.362 5.228-4.73 9.25-6.125 6.055-2.215 11.997-4.62 17.938-7.125 11.15-4.678 22.35-9.223 33.562-13.75a9099.854 9099.854 0 0 0 45-18.313 4466.46 4466.46 0 0 1 40.94-16.57 3389.972 3389.972 0 0 0 26.638-10.763c9.717-3.968 19.444-7.913 29.172-11.854a19910.135 19910.135 0 0 0 42.286-17.19c5.57-2.271 11.142-4.54 16.714-6.81 7.792-3.174 15.585-6.35 23.376-9.526 2.2-.896 4.4-1.79 6.601-2.684a1929.276 1929.276 0 0 0 16.914-6.951c2.923-1.218 5.85-2.428 8.776-3.636 1.418-.589 2.835-1.18 4.25-1.777a808.046 808.046 0 0 1 5.946-2.469l3.447-1.438c4.56-1.457 7.751-1.738 12.065.418Z"/>
  
  <path fill="#FDFDFD" d="M368 363c1 2 1 2 .41 4.307l-1.018 2.933-1.149 3.342-1.282 3.656-1.31 3.79a3263.504 3263.504 0 0 1-3.54 10.173c-1.23 3.526-2.451 7.056-3.674 10.585A10343.14 10343.14 0 0 1 348 426l-1.058 3.027a8124.425 8124.425 0 0 1-7.2 20.497 7302.318 7302.318 0 0 0-12.93 37.038l-1.07 3.089a24750.742 24750.742 0 0 0-11.336 32.755l-4.808 13.92c-1.12 3.246-2.24 6.493-3.358 9.74A2130.804 2130.804 0 0 1 292 586c-3.693-.838-6.565-2.266-9.89-4.105l-1.736-.957c-1.877-1.037-3.75-2.08-5.624-3.125l-3.936-2.183a1281.651 1281.651 0 0 1-27.087-15.522c-8.115-4.772-16.297-9.418-24.508-14.023l-2.739-1.538-2.409-1.349c-1.73-1-3.408-2.09-5.071-3.198-2.901-.323-2.901-.323-6 1-2.598 2.493-4.644 5.339-6.75 8.25l-1.841 2.46a813.754 813.754 0 0 0-3.676 4.95c-2.399 3.239-4.878 6.413-7.358 9.59-2.313 2.984-4.488 5.927-6.523 9.11L175 578h-2c-.412-4.406-.82-8.813-1.227-13.22-.138-1.492-.276-2.983-.416-4.474a1034.1 1034.1 0 0 1-.969-10.917 221.915 221.915 0 0 0-.929-8.827c-1.142-10.123-1.142-10.123.6-13.794 1.614-1.741 3.19-2.932 5.191-4.206l1.949-1.443c1.3-.96 2.616-1.902 3.947-2.821 2.591-1.814 4.994-3.829 7.417-5.86l2.66-2.16a684.39 684.39 0 0 0 9.277-7.778 691.75 691.75 0 0 1 11.938-9.938c4.246-3.455 8.415-6.99 12.562-10.562 6.777-5.837 13.683-11.503 20.633-17.133 5.803-4.72 11.506-9.54 17.173-14.423 4.414-3.795 8.897-7.497 13.417-11.167a686.204 686.204 0 0 0 9.277-7.777c4.77-4.05 9.58-8.044 14.43-11.996 9.579-7.812 19.122-15.664 28.538-23.671 4.195-3.563 8.451-7.046 12.72-10.52 3.683-3.029 7.314-6.115 10.947-9.203 5.233-4.439 10.537-8.786 15.865-13.11Z"/>
  
  <path fill="#EDC832" d="m332 372 2 1-38.5 31.5-2.758 2.258c-1.805 1.476-3.612 2.95-5.422 4.422a913.03 913.03 0 0 0-14.882 12.382 537.57 537.57 0 0 1-14.004 11.5c-5.867 4.67-11.643 9.454-17.418 14.235-6.676 5.521-13.36 11.015-20.203 16.328-5.42 4.21-10.65 8.608-15.838 13.1a374.448 374.448 0 0 1-12.577 10.373 628.585 628.585 0 0 0-7.46 6.027l-2.727 2.227a774.661 774.661 0 0 0-7.547 6.296l-2.3 1.926a788.078 788.078 0 0 0-4.526 3.817l-2.115 1.765-1.883 1.588c-2.052 1.401-3.361 2.031-5.84 2.256-2.137-.826-2.137-.826-4.473-2.184l-2.684-1.537-2.905-1.716-3.055-1.766A1425.14 1425.14 0 0 1 135 502l-3.383-1.997a3995.016 3995.016 0 0 1-13.648-8.097 940.515 940.515 0 0 0-24.788-14.277l-2.439-1.371-2.13-1.183C87 474 87 474 86 472c23.549-9.936 47.223-19.533 70.964-28.998l3.169-1.264 3.125-1.245a3913.1 3913.1 0 0 0 25.867-10.43l1.923-.783c4.318-1.758 8.635-3.519 12.952-5.28 4.958-2.023 9.916-4.044 14.875-6.063l1.93-.785c12.056-4.904 24.142-9.732 36.231-14.557 18.017-7.19 36.011-14.433 53.964-21.783l2.903-1.187c2.679-1.097 5.357-2.194 8.034-3.293l2.404-.985c3.872-1.58 3.872-1.58 7.659-3.347Z"/>
  
  <!-- Letter e with cutout -->
  <path fill="#0C234B" fill-rule="evenodd" d="M595 491c7.322 4.796 11 10.803 13.25 19.125 1.2 6.063 2.566 15.243-.25 20.875h-44c2.073 9.22 2.073 9.22 8 14 2.371 1.186 3.829 1.13 6.473 1.133l2.728.004 2.861-.012 2.78.012c5.798-.008 11.407-.395 17.158-1.137.054 2.125.093 4.25.125 6.375l.07 3.586C604 558 604 558 602 560c-15.09 4.207-29.128 4.637-43.375-2.75-7.557-6.477-12.794-13.214-13.848-23.407-.85-12.817.128-24.926 8.672-35.167C563.995 487.28 580.823 484.166 595 491Z
  M583 502c3.98 2.322 4.906 3.812 7 8v9h-26c0-6.792 0-6.792 2.25-10.188l1.266-1.98c4.388-5.416 8.829-5.814 15.484-4.832Z" />

  <!-- Letter o with cutout -->
  <path fill="#0C234B" fill-rule="evenodd" d="M909.938 493.75c8.26 6.079 11.417 14.349 13.062 24.25.744 13.044-.358 24.443-8.531 34.973-4.386 4.871-9.275 7.097-15.469 9.027l-1.863.582c-10.688 2.09-22.209.771-31.48-5.055-6.933-5.47-10.797-13.384-12.376-21.992-1.316-11.862-.86-24.641 6.227-34.726 12.355-14.976 34.025-17.217 50.43-7.059Z
  M893 503c4.48 2.2 6.863 4.501 9 9 2.559 8.683 2.391 21.02-1.078 29.367-2.062 3.652-3.977 5.318-7.922 6.633-4.965.521-8.879.53-13.438-1.625-4.23-3.922-6.258-8.645-6.723-14.354a491.534 491.534 0 0 1-.089-6.771l-.063-2.344c-.037-5.635.95-9.772 3.313-14.906 5.38-5.117 9.757-5.801 17-5Z" />

  <!-- Other shapes -->
  <!-- Letter U -->
  <path fill="#0C234B" d="M397 463h19c1.423 2.846 1.14 5.268 1.158 8.45l.015 2.006c.01 1.44.02 2.88.026 4.32.012 2.283.031 4.566.053 6.85.062 6.491.116 12.983.15 19.476.02 3.97.056 7.94.1 11.911.014 1.51.023 3.02.026 4.53.005 2.12.028 4.24.055 6.36l.025 3.65c.667 5.865 2.708 10.641 7.392 14.447 6.183 2.061 13.471 1.828 19.625-.188 3.82-2.915 5.48-6.17 6.375-10.812.116-2.322.176-4.647.205-6.972l.03-2.1c.032-2.283.057-4.567.081-6.85l.063-4.758c.056-4.17.105-8.338.153-12.508.05-4.256.106-8.513.161-12.769.108-8.348.21-16.695.307-25.043 3.146-.029 6.292-.047 9.438-.063l2.72-.025 2.588-.01 2.396-.016C471 463 471 463 472 464c.115 2.14.16 4.282.177 6.425l.02 2.035c.02 2.238.031 4.475.041 6.712l.013 2.322c.02 4.067.035 8.134.044 12.202.011 4.172.045 8.344.085 12.516.027 3.23.035 6.46.038 9.689.005 1.535.017 3.07.035 4.606.13 11.35-.329 22.88-7.828 32.056-7.712 7.76-16.534 10.759-27.362 10.906-.87-.01-1.741-.02-2.638-.032l-2.778-.027c-10.833-.276-19.11-2.547-27.007-10.273-8.687-10.09-8.123-22.965-8.035-35.547l.008-4.737c.008-4.128.027-8.256.05-12.384.02-4.223.03-8.447.04-12.67.02-8.267.056-16.533.097-24.799Z"/>

  <!-- Letter n -->    
  <path fill="#0C234B " d="M802 494c6.665 7.498 6.283 16.902 6.195 26.375l-.008 3.53c-.011 3.699-.036 7.397-.062 11.095-.01 2.517-.02 5.034-.027 7.55-.022 6.15-.057 12.3-.098 18.45h-20l-.028-4.602a2832.34 2832.34 0 0 0-.18-16.913c-.028-2.44-.049-4.879-.063-7.318a1224.54 1224.54 0 0 0-.12-10.522l-.003-3.303c-.105-6.055-.105-6.055-2.482-11.53-3.39-2.892-6.152-2.436-10.429-2.242-3.693.59-5.9 1.985-8.695 4.43l-1.63 1.334c-1.837 2.234-1.765 3.633-1.802 6.505l-.06 2.972-.02 3.2-.054 3.284c-.054 3.464-.088 6.928-.121 10.393-.034 2.347-.068 4.694-.104 7.04-.085 5.758-.152 11.515-.209 17.272h-19v-71h16c2 4 2 4 2 8 .63-.47 1.258-.941 1.906-1.426 12.496-9.09 25.394-12.34 39.094-2.574Z"/>

 <!-- Letter u (2nd) -->  
  <path fill="#0C234B" d="m666.766 489.886 2.27.016 2.45.01 2.577.025 2.587.014c2.117.012 4.233.03 6.35.049l.025 1.827c.086 6.278.185 12.556.292 18.833.039 2.343.074 4.685.105 7.028.046 3.368.104 6.737.164 10.105l.035 3.17.06 2.971.04 2.604c.451 3.983 1.356 6.697 4.467 9.274 4.207 1.777 7.649 2.023 11.968.356 3.044-1.472 5.44-2.764 7.844-5.168.33-2.263.33-2.263.319-4.909l.06-3.093.035-3.35.059-3.421c.06-3.617.106-7.235.152-10.852l.117-7.344c.096-6.01.18-12.02.258-18.031h19v71h-17l-1-6-2.937 2.312c-8.34 5.848-17.02 6.732-27.063 5.688-4.593-1.21-7.888-2.976-11.375-6.188-4.58-7.927-5.052-15.452-4.953-24.468l.006-3.587c.006-2.484.02-4.968.04-7.452.032-3.82.042-7.64.048-11.461.009-2.417.02-4.834.03-7.25l.014-3.478.029-3.188.02-2.818c.175-2.616.28-3.055 2.907-3.224Z"/>
  
  <!-- Letter J -->
  <path fill="#0C234B" d="M630 463a2398.8 2398.8 0 0 1 8.938-.063l2.576-.025 2.45-.01 2.27-.016C648 463 648 463 649 464c.111 2.991.157 5.96.161 8.95l.015 2.85c.015 3.127.022 6.255.027 9.384l.017 6.515c.01 4.566.017 9.131.02 13.697.006 5.834.03 11.668.058 17.502.019 4.493.024 8.985.026 13.478.003 2.15.01 4.299.024 6.448.017 3.02.015 6.04.008 9.06l.028 2.664c-.056 8.487-1.815 16.83-7.384 23.452-7.289 6.493-13.623 8.335-23.25 8.188l-2.469-.002c-6-.045-6-.045-8.281-1.186v-15l5.625.188c4.885-.018 8.376-.112 12.375-3.188 3.368-5.206 3.442-9.686 3.432-15.677l.031-2.9c.03-3.148.04-6.297.049-9.446a4649.059 4649.059 0 0 0 .158-23.818c.03-5.872.076-11.744.121-17.616.086-11.514.153-23.029.209-34.543Z"/>

  <!-- Letter S -->
  <path fill="#0C234B" d="M534 491v15l-3.875-1c-5.197-1.04-10.28-1.258-15.563-1.313l-2.403-.052c-4.218-.11-4.218-.11-7.87 1.7-1.542 1.72-1.542 1.72-1.789 4.665.169 3.115.169 3.115 2.547 4.574 3.48 1.68 6.949 2.457 10.703 3.239 8.27 1.913 14.136 4.617 19.813 11.125 3.039 6.303 2.754 15.17.554 21.671-3.336 5.877-7.925 8.474-14.258 10.293C509.3 563.904 498.4 563.71 486 560c-1-1-1-1-1.098-4.16l.036-3.903.027-3.91L485 545c6.61.907 6.61.907 9.2 1.523 3.82.65 7.557.661 11.425.664l2.313.038c3.882.01 5.759-.023 9.062-2.225.25-3.584.25-3.584 0-7-4.408-2.05-8.76-3.537-13.438-4.875-7.649-2.312-14.15-5.168-18.562-12.125-2.916-6.56-2.762-12.46-.5-19.125 2.71-6.268 7.176-9.213 13.125-12.188 10.4-3.01 26.533-3.608 36.375 1.313Z"/>
  
  <!-- Letter r -->
  <path fill="#0C234B" d="M974 488v18l-5.125.313c-5.356.488-9.245 1.58-13.504 4.992-1.808 2.236-1.766 3.586-1.803 6.442l-.06 2.911-.02 3.135-.054 3.216c-.054 3.393-.088 6.785-.121 10.178-.034 2.3-.068 4.598-.104 6.897-.085 5.639-.152 11.277-.209 16.916h-20v-71h16c2 5 2 5 2 8l1.504-1.207C959.088 491.658 965.406 488 974 488Z"/>
  
  <!-- Letter i -->
  <path fill="#0C234B" d="M822 490h19v71h-19v-71Z"/>
  
  <path fill="#EECC30" d="M838.813 452.313c3.2 2.468 4.89 3.794 6.187 7.687.395 4.192.27 6.48-1.688 10.25-3.548 4.22-5.723 5.573-11.25 6.188-4.26-.17-6.809-1.65-10.062-4.438-2.746-4.411-2.67-8.958-2-14 4.166-7.142 11.302-9.192 18.813-5.688Z"/>
</svg>