<svg xmlns="http://www.w3.org/2000/svg"
     viewBox="40 300 370 350"
     preserveAspectRatio="xMidYMid meet">
  <!-- Main paths -->
  <path fill="#051C49" d="M394.875 330.438c2.528 3.048 2.561 4.94 2.46 8.82-.686 5.62-2.714 10.862-4.585 16.18A1789.728 1789.728 0 0 1 387 372l-1.313 3.751a4506.21 4506.21 0 0 1-6.221 17.635c-4.78 13.465-9.493 26.954-14.21 40.441l-6.197 17.72-.674 1.925c-3.743 10.7-7.498 21.397-11.26 32.09a16331.725 16331.725 0 0 0-15.84 45.278l-.893 2.565-1.765 5.064c-1.465 4.206-2.934 8.41-4.41 12.612-2.834 8.07-5.647 16.144-8.385 24.247l-.762 2.25c-1.518 4.48-1.518 4.48-3.026 8.964-6.777 20.19-6.777 20.19-11.044 24.458-6.282.642-9.964-.548-15.25-4-1.492-.925-2.985-1.846-4.48-2.766l-2.51-1.556c-4.78-2.906-9.655-5.648-14.522-8.407a3595.83 3595.83 0 0 1-9.054-5.158l-1.818-1.038c-8.007-4.578-15.968-9.233-23.929-13.891l-2.664-1.544a241.889 241.889 0 0 1-5.984-3.667l-3.226-2-2.934-1.863c-2.511-1.376-2.511-1.376-4.783-.54-2.074 1.607-3.422 3.19-4.948 5.325l-1.72 2.376-1.803 2.542a5150.8 5150.8 0 0 1-3.77 5.21l-1.861 2.581c-2.297 3.156-4.661 6.253-7.056 9.333a814.317 814.317 0 0 0-9.5 12.5l-2.235 2.954a125.237 125.237 0 0 0-3.344 4.656c-2.172 3.04-4.014 4.39-7.609 5.14-1.938.293-1.938.293-4-.187-3.264-2.636-4.817-4.259-5.833-8.375a125.793 125.793 0 0 1-.315-4.07l-.201-2.322c-.15-1.751-.29-3.503-.421-5.256a700.858 700.858 0 0 0-.844-9.816 3472.38 3472.38 0 0 1-1.673-19.08c-.285-3.333-.572-6.666-.86-9.998-.279-3.213-.554-6.425-.83-9.638l-.312-3.61-.284-3.342-.25-2.931c-.15-2.183-.177-4.374-.177-6.562l-2.547-.738c-3.86-1.41-7.211-3.322-10.703-5.45a3281.17 3281.17 0 0 0-4.543-2.714l-2.51-1.5c-5.058-2.997-10.162-5.917-15.26-8.848a5477.451 5477.451 0 0 1-34.472-20.015c-3.08-1.803-6.165-3.599-9.25-5.395a21041.5 21041.5 0 0 1-6.028-3.527l-2.823-1.64-2.602-1.528-2.283-1.333C55 478 53.482 476.857 52 475c-.61-5.495-.61-5.495 0-8 2.693-3.362 5.228-4.73 9.25-6.125 6.055-2.215 11.997-4.62 17.938-7.125 11.15-4.678 22.35-9.223 33.562-13.75a9099.854 9099.854 0 0 0 45-18.313 4466.46 4466.46 0 0 1 40.94-16.57 3389.972 3389.972 0 0 0 26.638-10.763c9.717-3.968 19.444-7.913 29.172-11.854a19910.135 19910.135 0 0 0 42.286-17.19c5.57-2.271 11.142-4.54 16.714-6.81 7.792-3.174 15.585-6.35 23.376-9.526 2.2-.896 4.4-1.79 6.601-2.684a1929.276 1929.276 0 0 0 16.914-6.951c2.923-1.218 5.85-2.428 8.776-3.636 1.418-.589 2.835-1.18 4.25-1.777a808.046 808.046 0 0 1 5.946-2.469l3.447-1.438c4.56-1.457 7.751-1.738 12.065.418Z"/>
  
  <path fill="#FDFDFD" d="M368 363c1 2 1 2 .41 4.307l-1.018 2.933-1.149 3.342-1.282 3.656-1.31 3.79a3263.504 3263.504 0 0 1-3.54 10.173c-1.23 3.526-2.451 7.056-3.674 10.585A10343.14 10343.14 0 0 1 348 426l-1.058 3.027a8124.425 8124.425 0 0 1-7.2 20.497 7302.318 7302.318 0 0 0-12.93 37.038l-1.07 3.089a24750.742 24750.742 0 0 0-11.336 32.755l-4.808 13.92c-1.12 3.246-2.24 6.493-3.358 9.74A2130.804 2130.804 0 0 1 292 586c-3.693-.838-6.565-2.266-9.89-4.105l-1.736-.957c-1.877-1.037-3.75-2.08-5.624-3.125l-3.936-2.183a1281.651 1281.651 0 0 1-27.087-15.522c-8.115-4.772-16.297-9.418-24.508-14.023l-2.739-1.538-2.409-1.349c-1.73-1-3.408-2.09-5.071-3.198-2.901-.323-2.901-.323-6 1-2.598 2.493-4.644 5.339-6.75 8.25l-1.841 2.46a813.754 813.754 0 0 0-3.676 4.95c-2.399 3.239-4.878 6.413-7.358 9.59-2.313 2.984-4.488 5.927-6.523 9.11L175 578h-2c-.412-4.406-.82-8.813-1.227-13.22-.138-1.492-.276-2.983-.416-4.474a1034.1 1034.1 0 0 1-.969-10.917 221.915 221.915 0 0 0-.929-8.827c-1.142-10.123-1.142-10.123.6-13.794 1.614-1.741 3.19-2.932 5.191-4.206l1.949-1.443c1.3-.96 2.616-1.902 3.947-2.821 2.591-1.814 4.994-3.829 7.417-5.86l2.66-2.16a684.39 684.39 0 0 0 9.277-7.778 691.75 691.75 0 0 1 11.938-9.938c4.246-3.455 8.415-6.99 12.562-10.562 6.777-5.837 13.683-11.503 20.633-17.133 5.803-4.72 11.506-9.54 17.173-14.423 4.414-3.795 8.897-7.497 13.417-11.167a686.204 686.204 0 0 0 9.277-7.777c4.77-4.05 9.58-8.044 14.43-11.996 9.579-7.812 19.122-15.664 28.538-23.671 4.195-3.563 8.451-7.046 12.72-10.52 3.683-3.029 7.314-6.115 10.947-9.203 5.233-4.439 10.537-8.786 15.865-13.11Z"/>
  
  <path fill="#EDC832" d="m332 372 2 1-38.5 31.5-2.758 2.258c-1.805 1.476-3.612 2.95-5.422 4.422a913.03 913.03 0 0 0-14.882 12.382 537.57 537.57 0 0 1-14.004 11.5c-5.867 4.67-11.643 9.454-17.418 14.235-6.676 5.521-13.36 11.015-20.203 16.328-5.42 4.21-10.65 8.608-15.838 13.1a374.448 374.448 0 0 1-12.577 10.373 628.585 628.585 0 0 0-7.46 6.027l-2.727 2.227a774.661 774.661 0 0 0-7.547 6.296l-2.3 1.926a788.078 788.078 0 0 0-4.526 3.817l-2.115 1.765-1.883 1.588c-2.052 1.401-3.361 2.031-5.84 2.256-2.137-.826-2.137-.826-4.473-2.184l-2.684-1.537-2.905-1.716-3.055-1.766A1425.14 1425.14 0 0 1 135 502l-3.383-1.997a3995.016 3995.016 0 0 1-13.648-8.097 940.515 940.515 0 0 0-24.788-14.277l-2.439-1.371-2.13-1.183C87 474 87 474 86 472c23.549-9.936 47.223-19.533 70.964-28.998l3.169-1.264 3.125-1.245a3913.1 3913.1 0 0 0 25.867-10.43l1.923-.783c4.318-1.758 8.635-3.519 12.952-5.28 4.958-2.023 9.916-4.044 14.875-6.063l1.93-.785c12.056-4.904 24.142-9.732 36.231-14.557 18.017-7.19 36.011-14.433 53.964-21.783l2.903-1.187c2.679-1.097 5.357-2.194 8.034-3.293l2.404-.985c3.872-1.58 3.872-1.58 7.659-3.347Z"/>
  
</svg>
